<svg width="16" height="16" viewBox="0 0 16 16" fill="none" xmlns="http://www.w3.org/2000/svg">
<path fill-rule="evenodd" clip-rule="evenodd" d="M7.99967 5.50008C6.61896 5.50008 5.49967 6.61937 5.49967 8.00008C5.49967 9.38079 6.61896 10.5001 7.99967 10.5001C9.38039 10.5001 10.4997 9.38079 10.4997 8.00008C10.4997 6.61937 9.38039 5.50008 7.99967 5.50008ZM6.49967 8.00008C6.49967 7.17165 7.17125 6.50008 7.99967 6.50008C8.8281 6.50008 9.49967 7.17165 9.49967 8.00008C9.49967 8.82851 8.8281 9.50008 7.99967 9.50008C7.17125 9.50008 6.49967 8.82851 6.49967 8.00008Z" fill="black"/>
<path fill-rule="evenodd" clip-rule="evenodd" d="M7.99967 2.16675C4.99025 2.16675 2.9632 3.96955 1.78672 5.49799L1.7655 5.52555C1.49943 5.8711 1.25438 6.18936 1.08813 6.56568C0.910104 6.96866 0.833008 7.40787 0.833008 8.00008C0.833008 8.59229 0.910104 9.0315 1.08813 9.43448C1.25438 9.8108 1.49944 10.1291 1.76551 10.4746L1.78672 10.5022C2.9632 12.0306 4.99025 13.8334 7.99967 13.8334C11.0091 13.8334 13.0361 12.0306 14.2126 10.5022L14.2338 10.4746C14.4999 10.1291 14.745 9.81081 14.9112 9.43448C15.0892 9.0315 15.1663 8.59229 15.1663 8.00008C15.1663 7.40787 15.0892 6.96866 14.9112 6.56568C14.745 6.18936 14.4999 5.87109 14.2338 5.52553L14.2126 5.49799C13.0361 3.96955 11.0091 2.16675 7.99967 2.16675ZM2.57915 6.10795C3.66543 4.69669 5.43325 3.16675 7.99967 3.16675C10.5661 3.16675 12.3339 4.69669 13.4202 6.10795C13.7126 6.48781 13.8839 6.71479 13.9965 6.96978C14.1018 7.20809 14.1663 7.49937 14.1663 8.00008C14.1663 8.50079 14.1018 8.79207 13.9965 9.03038C13.8839 9.28538 13.7126 9.51236 13.4202 9.89222C12.3339 11.3035 10.5661 12.8334 7.99967 12.8334C5.43325 12.8334 3.66543 11.3035 2.57915 9.89222C2.28676 9.51236 2.1155 9.28538 2.00285 9.03038C1.89757 8.79207 1.83301 8.50079 1.83301 8.00008C1.83301 7.49937 1.89757 7.20809 2.00285 6.96978C2.1155 6.71479 2.28676 6.48781 2.57915 6.10795Z" fill="black"/>
</svg>
