<svg width="16" height="16" viewBox="0 0 16 16" fill="none" xmlns="http://www.w3.org/2000/svg">
<g clip-path="url(#clip0_26208_43)">
<path opacity="0.5" d="M7 14.6667V13.3334M9.66667 14.6667V13.3334" stroke="black" stroke-width="1.5" stroke-linecap="round"/>
<path d="M7.33301 13.3333V14.0833H8.08301V13.3333H7.33301ZM9.33301 12.5833C8.91879 12.5833 8.58301 12.9191 8.58301 13.3333C8.58301 13.7475 8.91879 14.0833 9.33301 14.0833V13.3333V12.5833ZM11.6663 3.25C11.2521 3.25 10.9163 3.58579 10.9163 4C10.9163 4.41421 11.2521 4.75 11.6663 4.75V4V3.25ZM4.66634 3.25C4.25213 3.25 3.91634 3.58579 3.91634 4C3.91634 4.41421 4.25213 4.75 4.66634 4.75V4V3.25ZM5.99967 12.5833C5.58546 12.5833 5.24967 12.9191 5.24967 13.3333C5.24967 13.7475 5.58546 14.0833 5.99967 14.0833V13.3333V12.5833ZM9.99967 14.0833C10.4139 14.0833 10.7497 13.7475 10.7497 13.3333C10.7497 12.9191 10.4139 12.5833 9.99967 12.5833V13.3333V14.0833ZM7.33301 7.5H6.58301V13.3333H7.33301H8.08301V7.5H7.33301ZM7.33301 13.3333V12.5833H2.82138V13.3333V14.0833H7.33301V13.3333ZM1.33301 11.5969H2.08301V7.5H1.33301H0.583008V11.5969H1.33301ZM2.82138 13.3333V12.5833C2.51789 12.5833 2.08301 12.2543 2.08301 11.5969H1.33301H0.583008C0.583008 12.8575 1.48086 14.0833 2.82138 14.0833V13.3333ZM4.33301 4V4.75C5.47135 4.75 6.58301 5.86859 6.58301 7.5H7.33301H8.08301C8.08301 5.26542 6.50838 3.25 4.33301 3.25V4ZM4.33301 4V3.25C2.15764 3.25 0.583008 5.26542 0.583008 7.5H1.33301H2.08301C2.08301 5.86859 3.19467 4.75 4.33301 4.75V4ZM14.6663 7.5H13.9163V11.6169H14.6663H15.4163V7.5H14.6663ZM13.1951 13.3333V12.5833H9.33301V13.3333V14.0833H13.1951V13.3333ZM14.6663 11.6169H13.9163C13.9163 12.2633 13.4891 12.5833 13.1951 12.5833V13.3333V14.0833C14.5261 14.0833 15.4163 12.8664 15.4163 11.6169H14.6663ZM14.6663 7.5H15.4163C15.4163 5.26542 13.8417 3.25 11.6663 3.25V4V4.75C12.8047 4.75 13.9163 5.86859 13.9163 7.5H14.6663ZM4.66634 4V4.75H11.9997V4V3.25H4.66634V4ZM5.99967 13.3333V14.0833H9.99967V13.3333V12.5833H5.99967V13.3333Z" fill="black"/>
<path d="M3.33301 10.6667H5.33301" stroke="black" stroke-width="1.5" stroke-linecap="round"/>
<path opacity="0.5" d="M10.667 6.58947V3.60739M10.667 3.60739V1.75671C10.667 1.59928 10.7787 1.464 10.9333 1.43422L11.2573 1.37178C11.6495 1.2962 12.0551 1.33229 12.4278 1.47592L12.4806 1.49626C12.85 1.63865 13.2541 1.66525 13.6391 1.57253C13.8232 1.52818 14.0003 1.6677 14.0003 1.85707V3.33807C14.0003 3.49605 13.8921 3.63346 13.7385 3.67045L13.6941 3.68115C13.2733 3.7825 12.8316 3.75342 12.4278 3.59778C12.0551 3.45415 11.6495 3.41807 11.2573 3.49364L10.667 3.60739Z" stroke="black" stroke-width="1.5" stroke-linecap="round"/>
</g>
<defs>
<clipPath id="clip0_26208_43">
<rect width="16" height="16" fill="white"/>
</clipPath>
</defs>
</svg>
